<svg width="301" height="58" viewBox="0 0 301 58" fill="none" xmlns="http://www.w3.org/2000/svg">
<path d="M77.944 27.464C77.944 30.728 77.08 33.64 75.352 36.2C73.624 38.696 71.448 40.872 68.824 42.728C66.2 44.584 63.352 46.152 60.28 47.432C57.208 48.648 54.36 49.576 51.736 50.216C48.472 51.048 45.176 51.656 41.848 52.04C38.584 52.36 35.256 52.552 31.864 52.616C31.928 52.872 31.96 53.256 31.96 53.768C31.96 54.6 31.736 55.368 31.288 56.072C30.84 56.776 30.168 57.128 29.272 57.128C27.992 57.128 27.032 56.584 26.392 55.496C25.816 54.408 25.464 53.352 25.336 52.328C24.248 52.2 22.872 51.912 21.208 51.464C19.608 51.016 18.04 50.408 16.504 49.64C14.968 48.872 13.656 47.944 12.568 46.856C11.48 45.768 10.936 44.488 10.936 43.016C10.936 42.12 11.256 41.448 11.896 41C12.536 40.552 13.304 40.328 14.2 40.328C15.416 40.328 16.28 40.648 16.792 41.288C17.368 41.864 17.912 42.536 18.424 43.304C18.936 44.072 19.64 44.84 20.536 45.608C21.432 46.312 22.84 46.792 24.76 47.048C24.632 45.256 24.504 43.464 24.376 41.672C24.248 39.88 24.184 38.088 24.184 36.296C24.184 27.656 25.4 19.112 27.832 10.664C26.936 10.792 25.336 11.112 23.032 11.624C20.728 12.136 18.36 12.84 15.928 13.736C13.496 14.568 11.352 15.56 9.496 16.712C7.64 17.864 6.712 19.144 6.712 20.552C6.712 21.768 7.32 22.536 8.536 22.856C9.816 23.176 11.192 23.4 12.664 23.528C14.2 23.592 15.576 23.784 16.792 24.104C18.072 24.36 18.712 25.064 18.712 26.216C18.712 26.792 18.552 27.24 18.232 27.56C17.912 27.88 17.496 28.136 16.984 28.328C16.536 28.456 16.024 28.52 15.448 28.52C14.936 28.52 14.456 28.52 14.008 28.52C12.856 28.52 11.512 28.424 9.976 28.232C8.44 28.04 7 27.656 5.656 27.08C4.248 26.504 3.064 25.736 2.104 24.776C1.144 23.752 0.664 22.472 0.664 20.936C0.664 19.272 1.208 17.768 2.296 16.424C3.384 15.016 4.792 13.8 6.52 12.776C8.248 11.688 10.168 10.76 12.28 9.992C14.456 9.16 16.6 8.488 18.712 7.976C20.824 7.4 22.808 6.952 24.664 6.632C26.584 6.248 28.12 5.992 29.272 5.864C29.464 5.352 29.656 4.776 29.848 4.136C30.104 3.496 30.424 2.888 30.808 2.312C31.192 1.736 31.608 1.256 32.056 0.871996C32.568 0.423998 33.176 0.199999 33.88 0.199999C34.776 0.199999 35.448 0.583998 35.896 1.352C36.344 2.056 36.568 2.792 36.568 3.56C36.568 3.88 36.536 4.168 36.472 4.424C36.472 4.68 36.44 4.968 36.376 5.288C38.488 5.352 40.984 5.544 43.864 5.864C46.808 6.12 49.816 6.6 52.888 7.304C55.96 7.944 59 8.808 62.008 9.896C65.016 10.92 67.672 12.264 69.976 13.928C72.344 15.528 74.264 17.448 75.736 19.688C77.208 21.928 77.944 24.52 77.944 27.464ZM72.952 27.944C72.952 25.576 72.248 23.496 70.84 21.704C69.496 19.912 67.704 18.376 65.464 17.096C63.224 15.816 60.696 14.76 57.88 13.928C55.128 13.096 52.344 12.424 49.528 11.912C46.712 11.4 44.024 11.048 41.464 10.856C38.904 10.664 36.76 10.568 35.032 10.568C34.712 10.568 34.392 10.568 34.072 10.568C33.816 10.568 33.528 10.6 33.208 10.664C32.504 11.88 31.896 13.544 31.384 15.656C30.936 17.768 30.552 20.008 30.232 22.376C29.912 24.744 29.656 27.08 29.464 29.384C29.336 31.624 29.272 33.448 29.272 34.856C29.272 35.496 29.272 36.424 29.272 37.64C29.336 38.856 29.4 40.136 29.464 41.48C29.592 42.76 29.72 43.976 29.848 45.128C30.04 46.28 30.264 47.08 30.52 47.528C31.032 47.592 31.512 47.624 31.96 47.624C32.472 47.624 32.984 47.624 33.496 47.624C36.376 47.624 39.512 47.464 42.904 47.144C46.296 46.76 49.624 46.12 52.888 45.224C56.216 44.328 59.32 43.112 62.2 41.576C65.144 40.04 67.64 38.088 69.688 35.72C70.584 34.632 71.352 33.448 71.992 32.168C72.632 30.824 72.952 29.416 72.952 27.944ZM152.382 27.464C152.382 30.728 151.518 33.64 149.79 36.2C148.062 38.696 145.886 40.872 143.262 42.728C140.638 44.584 137.79 46.152 134.718 47.432C131.646 48.648 128.798 49.576 126.174 50.216C122.91 51.048 119.614 51.656 116.286 52.04C113.022 52.36 109.694 52.552 106.302 52.616C106.366 52.872 106.398 53.256 106.398 53.768C106.398 54.6 106.174 55.368 105.726 56.072C105.278 56.776 104.606 57.128 103.71 57.128C102.43 57.128 101.47 56.584 100.83 55.496C100.254 54.408 99.9015 53.352 99.7735 52.328C98.6855 52.2 97.3095 51.912 95.6455 51.464C94.0455 51.016 92.4775 50.408 90.9415 49.64C89.4055 48.872 88.0935 47.944 87.0055 46.856C85.9175 45.768 85.3735 44.488 85.3735 43.016C85.3735 42.12 85.6935 41.448 86.3335 41C86.9735 40.552 87.7415 40.328 88.6375 40.328C89.8535 40.328 90.7175 40.648 91.2295 41.288C91.8055 41.864 92.3495 42.536 92.8615 43.304C93.3735 44.072 94.0775 44.84 94.9735 45.608C95.8695 46.312 97.2775 46.792 99.1975 47.048C99.0695 45.256 98.9415 43.464 98.8135 41.672C98.6855 39.88 98.6215 38.088 98.6215 36.296C98.6215 27.656 99.8375 19.112 102.27 10.664C101.374 10.792 99.7735 11.112 97.4695 11.624C95.1655 12.136 92.7975 12.84 90.3655 13.736C87.9335 14.568 85.7895 15.56 83.9335 16.712C82.0775 17.864 81.1495 19.144 81.1495 20.552C81.1495 21.768 81.7575 22.536 82.9735 22.856C84.2535 23.176 85.6295 23.4 87.1015 23.528C88.6375 23.592 90.0135 23.784 91.2295 24.104C92.5095 24.36 93.1495 25.064 93.1495 26.216C93.1495 26.792 92.9895 27.24 92.6695 27.56C92.3495 27.88 91.9335 28.136 91.4215 28.328C90.9735 28.456 90.4615 28.52 89.8855 28.52C89.3735 28.52 88.8935 28.52 88.4455 28.52C87.2935 28.52 85.9495 28.424 84.4135 28.232C82.8775 28.04 81.4375 27.656 80.0935 27.08C78.6855 26.504 77.5015 25.736 76.5415 24.776C75.5815 23.752 75.1015 22.472 75.1015 20.936C75.1015 19.272 75.6455 17.768 76.7335 16.424C77.8215 15.016 79.2295 13.8 80.9575 12.776C82.6855 11.688 84.6055 10.76 86.7175 9.992C88.8935 9.16 91.0375 8.488 93.1495 7.976C95.2615 7.4 97.2455 6.952 99.1015 6.632C101.022 6.248 102.558 5.992 103.71 5.864C103.902 5.352 104.094 4.776 104.286 4.136C104.542 3.496 104.862 2.888 105.246 2.312C105.63 1.736 106.046 1.256 106.494 0.871996C107.006 0.423998 107.614 0.199999 108.318 0.199999C109.214 0.199999 109.886 0.583998 110.334 1.352C110.782 2.056 111.006 2.792 111.006 3.56C111.006 3.88 110.974 4.168 110.91 4.424C110.91 4.68 110.878 4.968 110.814 5.288C112.926 5.352 115.422 5.544 118.302 5.864C121.246 6.12 124.254 6.6 127.326 7.304C130.398 7.944 133.438 8.808 136.446 9.896C139.454 10.92 142.11 12.264 144.414 13.928C146.782 15.528 148.702 17.448 150.174 19.688C151.646 21.928 152.382 24.52 152.382 27.464ZM147.39 27.944C147.39 25.576 146.686 23.496 145.278 21.704C143.934 19.912 142.142 18.376 139.902 17.096C137.662 15.816 135.134 14.76 132.318 13.928C129.566 13.096 126.782 12.424 123.966 11.912C121.15 11.4 118.462 11.048 115.902 10.856C113.342 10.664 111.198 10.568 109.47 10.568C109.15 10.568 108.83 10.568 108.51 10.568C108.254 10.568 107.966 10.6 107.646 10.664C106.942 11.88 106.334 13.544 105.822 15.656C105.374 17.768 104.99 20.008 104.67 22.376C104.35 24.744 104.094 27.08 103.902 29.384C103.774 31.624 103.71 33.448 103.71 34.856C103.71 35.496 103.71 36.424 103.71 37.64C103.774 38.856 103.838 40.136 103.902 41.48C104.03 42.76 104.158 43.976 104.286 45.128C104.478 46.28 104.702 47.08 104.958 47.528C105.47 47.592 105.95 47.624 106.398 47.624C106.91 47.624 107.422 47.624 107.934 47.624C110.814 47.624 113.95 47.464 117.342 47.144C120.734 46.76 124.062 46.12 127.326 45.224C130.654 44.328 133.758 43.112 136.638 41.576C139.582 40.04 142.078 38.088 144.126 35.72C145.022 34.632 145.79 33.448 146.43 32.168C147.07 30.824 147.39 29.416 147.39 27.944ZM184.579 38.408C184.579 38.6 184.515 38.824 184.387 39.08C183.939 40.552 183.267 42.056 182.371 43.592C181.475 45.128 180.419 46.536 179.203 47.816C177.987 49.096 176.611 50.152 175.075 50.984C173.603 51.816 172.035 52.232 170.371 52.232C169.027 52.232 167.907 51.976 167.011 51.464C166.179 50.952 165.507 50.28 164.995 49.448C164.483 48.616 164.131 47.688 163.939 46.664C163.747 45.576 163.651 44.456 163.651 43.304C163.651 42.408 163.683 41.544 163.747 40.712C163.811 39.816 163.907 38.92 164.035 38.024C163.139 38.536 162.243 38.952 161.347 39.272C160.451 39.592 159.459 39.688 158.371 39.56C157.923 40.328 157.315 40.712 156.547 40.712C156.035 40.712 155.555 40.552 155.107 40.232C154.595 39.848 154.339 39.368 154.339 38.792C154.339 38.472 154.403 38.152 154.531 37.832C154.659 37.512 154.787 37.192 154.915 36.872C154.659 36.36 154.531 35.752 154.531 35.048C154.531 34.344 154.691 33.352 155.011 32.072C155.267 30.792 155.651 29.544 156.163 28.328C156.739 27.048 157.379 25.96 158.083 25.064C158.787 24.104 159.587 23.624 160.483 23.624C161.187 23.624 161.731 23.912 162.115 24.488C162.563 25.064 162.787 25.672 162.787 26.312C162.787 27.784 162.467 29.224 161.827 30.632C161.187 31.976 160.579 33.288 160.003 34.568C160.131 34.568 160.227 34.6 160.291 34.664C160.419 34.664 160.547 34.664 160.675 34.664C162.147 34.664 163.235 34.28 163.939 33.512C164.643 32.68 165.219 31.816 165.667 30.92C166.179 29.96 166.659 29.096 167.107 28.328C167.619 27.496 168.387 27.08 169.411 27.08C170.115 27.08 170.659 27.368 171.043 27.944C171.491 28.456 171.715 29.064 171.715 29.768C171.715 30.472 171.555 31.048 171.235 31.496C170.979 31.88 170.627 32.328 170.179 32.84C169.987 33.096 169.763 33.64 169.507 34.472C169.315 35.24 169.123 36.104 168.931 37.064C168.803 38.024 168.675 38.952 168.547 39.848C168.483 40.744 168.451 41.384 168.451 41.768C168.451 42.344 168.483 42.952 168.547 43.592C168.675 44.168 168.835 44.712 169.027 45.224C169.283 45.736 169.635 46.152 170.083 46.472C170.531 46.792 171.107 46.952 171.811 46.952C173.411 46.952 174.691 46.408 175.651 45.32C176.675 44.232 177.539 43.048 178.243 41.768C179.011 40.424 179.715 39.208 180.355 38.12C180.995 37.032 181.731 36.488 182.563 36.488C183.075 36.488 183.523 36.68 183.907 37.064C184.355 37.448 184.579 37.896 184.579 38.408ZM190.685 18.728C190.685 20.136 190.205 21.448 189.245 22.664C188.285 23.816 187.069 24.392 185.597 24.392C184.701 24.392 183.933 24.136 183.293 23.624C182.717 23.112 182.429 22.408 182.429 21.512C182.429 20.808 182.525 20.072 182.717 19.304C182.909 18.472 183.197 17.736 183.581 17.096C184.029 16.392 184.573 15.816 185.213 15.368C185.853 14.92 186.589 14.696 187.421 14.696C188.509 14.696 189.309 15.144 189.821 16.04C190.397 16.872 190.685 17.768 190.685 18.728ZM200.765 37.928C200.765 38.888 200.445 39.976 199.805 41.192C199.165 42.344 198.365 43.528 197.405 44.744C196.509 45.896 195.549 46.984 194.525 48.008C193.501 48.968 192.637 49.736 191.933 50.312C190.077 51.656 188.093 52.328 185.981 52.328C184.701 52.328 183.645 52.072 182.813 51.56C181.981 51.048 181.341 50.376 180.893 49.544C180.381 48.648 180.029 47.688 179.837 46.664C179.645 45.576 179.549 44.488 179.549 43.4C179.549 42.632 179.581 41.448 179.645 39.848C179.709 38.184 179.901 36.552 180.221 34.952C180.541 33.288 180.989 31.848 181.565 30.632C182.205 29.352 183.069 28.712 184.157 28.712C184.861 28.712 185.405 28.968 185.789 29.48C186.237 29.928 186.461 30.504 186.461 31.208C186.461 31.912 186.365 32.744 186.173 33.704C185.981 34.6 185.757 35.592 185.501 36.68C185.309 37.704 185.117 38.792 184.925 39.944C184.733 41.032 184.637 42.088 184.637 43.112C184.637 43.56 184.637 44.04 184.637 44.552C184.701 45.064 184.797 45.544 184.925 45.992C185.053 46.376 185.277 46.728 185.597 47.048C185.981 47.304 186.461 47.432 187.037 47.432C187.997 47.432 188.957 47.048 189.917 46.28C190.877 45.448 191.773 44.488 192.605 43.4C193.501 42.312 194.301 41.192 195.005 40.04C195.709 38.888 196.253 37.96 196.637 37.256C196.893 36.936 197.181 36.648 197.501 36.392C197.885 36.072 198.301 35.912 198.749 35.912C199.325 35.912 199.805 36.104 200.189 36.488C200.573 36.872 200.765 37.352 200.765 37.928ZM229.944 37.832C229.944 38.216 229.848 38.6 229.656 38.984C228.376 41.16 226.52 42.696 224.088 43.592C221.72 44.424 219.352 44.648 216.984 44.264C216.408 45.416 215.736 46.6 214.968 47.816C214.2 48.968 213.304 50.024 212.28 50.984C211.32 51.88 210.232 52.616 209.016 53.192C207.8 53.768 206.488 54.056 205.08 54.056C203.16 54.056 201.624 53.544 200.472 52.52C199.32 51.432 198.424 50.12 197.784 48.584C197.143 47.048 196.727 45.416 196.535 43.688C196.343 41.896 196.247 40.264 196.247 38.792C196.247 37.448 196.407 35.592 196.727 33.224C197.047 30.856 197.495 28.264 198.072 25.448C198.712 22.632 199.48 19.784 200.376 16.904C201.336 13.96 202.392 11.304 203.544 8.936C204.696 6.568 205.976 4.648 207.384 3.17599C208.856 1.64 210.424 0.871996 212.088 0.871996C213.24 0.871996 214.2 1.16 214.968 1.736C215.736 2.312 216.344 3.048 216.792 3.944C217.304 4.84 217.656 5.8 217.848 6.824C218.104 7.848 218.232 8.84 218.232 9.8C218.232 12.424 217.688 15.112 216.6 17.864C215.512 20.616 214.136 23.304 212.472 25.928C210.808 28.488 208.984 30.92 207 33.224C205.016 35.464 203.128 37.448 201.336 39.176C201.336 39.88 201.4 40.776 201.528 41.864C201.656 42.952 201.88 44.04 202.2 45.128C202.584 46.152 203.064 47.048 203.64 47.816C204.28 48.584 205.08 48.968 206.04 48.968C206.68 48.968 207.352 48.744 208.056 48.296C208.76 47.848 209.4 47.336 209.976 46.76C210.616 46.12 211.16 45.448 211.608 44.744C212.056 43.976 212.408 43.304 212.664 42.728C211.576 41.96 210.776 40.968 210.264 39.752C209.816 38.536 209.592 37.288 209.592 36.008C209.592 34.92 210.008 33.992 210.84 33.224C211.736 32.392 212.696 31.976 213.72 31.976C215.192 31.976 216.344 32.52 217.176 33.608C218.008 34.632 218.424 35.848 218.424 37.256C218.424 38.216 218.328 39.112 218.136 39.944C218.392 40.008 218.776 40.04 219.288 40.04C220.696 40.04 221.816 39.848 222.648 39.464C223.544 39.016 224.28 38.536 224.856 38.024C225.496 37.448 226.04 36.968 226.488 36.584C226.936 36.136 227.448 35.912 228.024 35.912C228.536 35.912 228.984 36.104 229.368 36.488C229.752 36.872 229.944 37.32 229.944 37.832ZM213.144 9.992C213.144 9.736 213.112 9.416 213.048 9.032C213.048 8.584 212.984 8.168 212.856 7.784C212.792 7.336 212.632 6.952 212.376 6.632C212.184 6.312 211.896 6.152 211.512 6.152C210.68 6.728 209.88 7.624 209.112 8.84C208.344 10.056 207.608 11.496 206.904 13.16C206.264 14.76 205.656 16.52 205.08 18.44C204.504 20.296 203.96 22.12 203.448 23.912C203 25.704 202.616 27.368 202.296 28.904C201.976 30.44 201.752 31.72 201.624 32.744C202.968 31.336 204.312 29.768 205.656 28.04C207.064 26.248 208.312 24.36 209.4 22.376C210.488 20.392 211.384 18.344 212.088 16.232C212.792 14.12 213.144 12.04 213.144 9.992ZM259.194 37.832C259.194 38.216 259.098 38.6 258.906 38.984C257.626 41.16 255.77 42.696 253.338 43.592C250.97 44.424 248.602 44.648 246.234 44.264C245.658 45.416 244.986 46.6 244.218 47.816C243.45 48.968 242.554 50.024 241.53 50.984C240.57 51.88 239.482 52.616 238.266 53.192C237.05 53.768 235.738 54.056 234.33 54.056C232.41 54.056 230.874 53.544 229.722 52.52C228.57 51.432 227.674 50.12 227.034 48.584C226.393 47.048 225.977 45.416 225.785 43.688C225.593 41.896 225.497 40.264 225.497 38.792C225.497 37.448 225.657 35.592 225.977 33.224C226.297 30.856 226.745 28.264 227.322 25.448C227.962 22.632 228.73 19.784 229.626 16.904C230.586 13.96 231.642 11.304 232.794 8.936C233.946 6.568 235.226 4.648 236.634 3.17599C238.106 1.64 239.674 0.871996 241.338 0.871996C242.49 0.871996 243.45 1.16 244.218 1.736C244.986 2.312 245.594 3.048 246.042 3.944C246.554 4.84 246.906 5.8 247.098 6.824C247.354 7.848 247.482 8.84 247.482 9.8C247.482 12.424 246.938 15.112 245.85 17.864C244.762 20.616 243.386 23.304 241.722 25.928C240.058 28.488 238.234 30.92 236.25 33.224C234.266 35.464 232.378 37.448 230.586 39.176C230.586 39.88 230.65 40.776 230.778 41.864C230.906 42.952 231.13 44.04 231.45 45.128C231.834 46.152 232.314 47.048 232.89 47.816C233.53 48.584 234.33 48.968 235.29 48.968C235.93 48.968 236.602 48.744 237.306 48.296C238.01 47.848 238.65 47.336 239.226 46.76C239.866 46.12 240.41 45.448 240.858 44.744C241.306 43.976 241.658 43.304 241.914 42.728C240.826 41.96 240.026 40.968 239.514 39.752C239.066 38.536 238.842 37.288 238.842 36.008C238.842 34.92 239.258 33.992 240.09 33.224C240.986 32.392 241.946 31.976 242.97 31.976C244.442 31.976 245.594 32.52 246.426 33.608C247.258 34.632 247.674 35.848 247.674 37.256C247.674 38.216 247.578 39.112 247.386 39.944C247.642 40.008 248.026 40.04 248.538 40.04C249.946 40.04 251.066 39.848 251.898 39.464C252.794 39.016 253.53 38.536 254.106 38.024C254.746 37.448 255.29 36.968 255.738 36.584C256.186 36.136 256.698 35.912 257.274 35.912C257.786 35.912 258.234 36.104 258.618 36.488C259.002 36.872 259.194 37.32 259.194 37.832ZM242.394 9.992C242.394 9.736 242.362 9.416 242.298 9.032C242.298 8.584 242.234 8.168 242.106 7.784C242.042 7.336 241.882 6.952 241.626 6.632C241.434 6.312 241.146 6.152 240.762 6.152C239.93 6.728 239.13 7.624 238.362 8.84C237.594 10.056 236.858 11.496 236.154 13.16C235.514 14.76 234.906 16.52 234.33 18.44C233.754 20.296 233.21 22.12 232.698 23.912C232.25 25.704 231.866 27.368 231.546 28.904C231.226 30.44 231.002 31.72 230.874 32.744C232.218 31.336 233.562 29.768 234.906 28.04C236.314 26.248 237.562 24.36 238.65 22.376C239.738 20.392 240.634 18.344 241.338 16.232C242.042 14.12 242.394 12.04 242.394 9.992ZM277.98 38.6C277.98 40.008 277.596 41.512 276.828 43.112C276.124 44.712 275.164 46.184 273.948 47.528C272.732 48.872 271.356 49.992 269.82 50.888C268.284 51.72 266.748 52.136 265.212 52.136C263.036 52.136 261.276 51.528 259.932 50.312C258.588 49.096 257.532 47.592 256.764 45.8C255.995 44.008 255.483 42.088 255.227 40.04C254.907 37.992 254.747 36.136 254.747 34.472C254.747 33.32 254.875 31.688 255.131 29.576C255.323 27.464 255.643 25.192 256.091 22.76C256.476 20.264 257.02 17.768 257.724 15.272C258.428 12.712 259.228 10.408 260.124 8.36C261.084 6.248 262.172 4.552 263.388 3.272C264.604 1.928 265.98 1.256 267.516 1.256C268.412 1.256 269.18 1.48 269.82 1.928C270.524 2.376 271.068 2.952 271.452 3.656C271.9 4.36 272.22 5.128 272.412 5.96C272.604 6.792 272.7 7.592 272.7 8.36C272.7 10.792 272.316 13.352 271.548 16.04C270.78 18.728 269.788 21.384 268.572 24.008C267.42 26.632 266.076 29.16 264.54 31.592C263.068 33.96 261.596 36.104 260.124 38.024C260.252 38.728 260.444 39.592 260.7 40.616C261.02 41.64 261.404 42.632 261.852 43.592C262.364 44.552 262.972 45.384 263.676 46.088C264.38 46.792 265.212 47.144 266.172 47.144C267.58 47.144 268.732 46.6 269.628 45.512C270.588 44.36 271.388 43.112 272.028 41.768C272.732 40.424 273.372 39.208 273.948 38.12C274.524 36.968 275.228 36.392 276.06 36.392C276.764 36.392 277.244 36.616 277.5 37.064C277.82 37.448 277.98 37.96 277.98 38.6ZM268.092 9.32C268.092 8.808 268.028 8.296 267.9 7.784C267.836 7.272 267.612 6.824 267.228 6.44C267.036 6.504 266.748 6.664 266.364 6.92C265.212 8.008 264.22 9.576 263.388 11.624C262.556 13.672 261.884 15.848 261.372 18.152C260.86 20.456 260.476 22.728 260.22 24.968C260.028 27.208 259.9 29.064 259.836 30.536C260.668 29.256 261.564 27.72 262.523 25.928C263.484 24.136 264.38 22.28 265.212 20.36C266.044 18.376 266.716 16.424 267.228 14.504C267.804 12.584 268.092 10.856 268.092 9.32ZM300.465 37.928C300.465 38.376 300.369 38.728 300.177 38.984C299.473 40.328 298.545 41.704 297.393 43.112C296.305 44.456 295.057 45.672 293.649 46.76C292.241 47.784 290.737 48.648 289.137 49.352C287.601 49.992 286.033 50.312 284.433 50.312C282.769 50.312 281.297 49.992 280.017 49.352C278.737 48.648 277.649 47.752 276.753 46.664C275.857 45.576 275.185 44.328 274.736 42.92C274.224 41.448 273.968 39.944 273.968 38.408C273.968 36.808 274.224 35.112 274.736 33.32C275.249 31.528 275.985 29.896 276.945 28.424C277.969 26.888 279.185 25.64 280.593 24.68C282.065 23.656 283.697 23.144 285.489 23.144C287.153 23.144 288.433 23.688 289.329 24.776C290.289 25.864 290.769 27.24 290.769 28.904C290.769 30.376 290.417 31.784 289.713 33.128C289.073 34.472 288.209 35.688 287.121 36.776C286.097 37.864 284.881 38.76 283.473 39.464C282.129 40.104 280.753 40.456 279.345 40.52C279.665 41.992 280.305 43.144 281.265 43.976C282.289 44.808 283.537 45.224 285.009 45.224C286.353 45.224 287.569 44.968 288.657 44.456C289.809 43.944 290.865 43.304 291.825 42.536C292.785 41.704 293.649 40.808 294.417 39.848C295.249 38.824 296.017 37.832 296.721 36.872C297.041 36.488 297.265 36.232 297.393 36.104C297.585 35.912 297.937 35.816 298.449 35.816C299.025 35.816 299.505 36.04 299.889 36.488C300.273 36.872 300.465 37.352 300.465 37.928ZM286.065 30.056C286.065 29.736 285.937 29.256 285.681 28.616C285.489 27.976 285.169 27.656 284.721 27.656C283.889 27.656 283.121 27.944 282.417 28.52C281.777 29.032 281.233 29.704 280.785 30.536C280.337 31.304 279.953 32.136 279.633 33.032C279.377 33.928 279.217 34.696 279.153 35.336C279.665 35.464 280.049 35.528 280.305 35.528C280.945 35.528 281.585 35.368 282.225 35.048C282.929 34.728 283.569 34.312 284.145 33.8C284.721 33.224 285.169 32.616 285.489 31.976C285.873 31.336 286.065 30.696 286.065 30.056Z" fill="black"/>
</svg>
